<svg xmlns="http://www.w3.org/2000/svg" width="44" height="44" fill="none" viewBox="0 0 44 44"><rect width="43" height="43" x=".5" y=".5" fill="#fff" fill-opacity=".08" stroke="url(#a)" opacity=".4" rx="9.5"/><path fill="#fff" d="M28.167 24.38c-.672-.145-1.203.167-1.674.44-.482.28-1.398 1.023-1.923.833-2.689-1.107-5.218-3.46-6.313-6.16-.193-.537.547-1.459.826-1.946.27-.472.576-1.009.436-1.685-.126-.608-1.754-2.68-2.33-3.247q-.569-.562-1.168-.613c-1.5-.064-3.177 1.939-3.472 2.418-.736 1.022-.732 2.382.013 4.03 1.795 4.429 8.586 11.112 13.03 12.975q1.231.575 2.245.576c.659 0 1.246-.184 1.75-.55.381-.219 2.467-1.979 2.412-3.52-.033-.393-.238-.786-.608-1.167-.562-.58-2.62-2.258-3.224-2.384"/><defs><linearGradient id="a" x1="22" x2="22" y1="0" y2="44" gradientUnits="userSpaceOnUse"><stop stop-color="#fff"/><stop offset="1" stop-color="#fff" stop-opacity="0"/></linearGradient></defs></svg>